<?xml version="1.0" encoding="utf-8"?>
<!-- Generator: Adobe Illustrator 16.0.0, SVG Export Plug-In . SVG Version: 6.00 Build 0)  -->
<!DOCTYPE svg PUBLIC "-//W3C//DTD SVG 1.1//EN" "http://www.w3.org/Graphics/SVG/1.1/DTD/svg11.dtd">
<svg version="1.1" id="Capa_1" xmlns="http://www.w3.org/2000/svg" xmlns:xlink="http://www.w3.org/1999/xlink" x="0px" y="0px"
	 width="300px" height="100px" viewBox="0 0 300 100" enable-background="new 0 0 300 100" xml:space="preserve">
<g>
	<polygon fill-rule="evenodd" clip-rule="evenodd" fill="#FFFFFF" stroke="#FFFFFF" stroke-miterlimit="10" points="59.203,70.342 
		82.047,70.342 92.754,90.005 48.494,90.005 	"/>
	<path fill-rule="evenodd" clip-rule="evenodd" fill="#FFFFFF" stroke="#FFFFFF" stroke-miterlimit="10" d="M16.794,4.783h107.66
		c3.032,0,5.511,2.513,5.511,5.583v59.38c0,3.069-2.479,5.583-5.511,5.583H16.794c-3.028,0-5.51-2.514-5.51-5.583v-59.38
		C11.285,7.296,13.767,4.783,16.794,4.783z"/>
	
		<rect x="14.942" y="8.04" fill-rule="evenodd" clip-rule="evenodd" fill="#FFFFFF" stroke="#FFFFFF" stroke-miterlimit="10" width="111.364" height="57.32"/>
	<path fill-rule="evenodd" clip-rule="evenodd" fill="#FFFFFF" stroke="#FFFFFF" stroke-miterlimit="10" d="M4.925,84.061h131.399
		c1.612,0,2.933,1.338,2.933,2.972l0,0c0,1.635-1.32,2.973-2.933,2.973H4.925c-1.614,0-2.933-1.338-2.933-2.973l0,0
		C1.993,85.398,3.312,84.061,4.925,84.061z"/>
	<path fill-rule="evenodd" clip-rule="evenodd" fill="#FFFFFF" stroke="#FFFFFF" stroke-miterlimit="10" d="M50.093,84.061h86.232
		c1.612,0,2.933,1.338,2.933,2.972l0,0c0,1.635-1.32,2.973-2.933,2.973H50.732L50.093,84.061z"/>
</g>
<text transform="matrix(1.3534 0 0 1 140.9346 70.3418)" fill="#5896D1" stroke="#5896D1" stroke-miterlimit="10" font-family="'SegoeUI-Bold'" font-size="62.7788">e</text>
<g>
	<polygon fill="#FFFFFF" stroke="#FFFFFF" stroke-miterlimit="10" points="204.724,63.446 204.724,29.463 194.317,29.463 
		194.317,71.042 221.83,71.042 221.83,63.446 	"/>
	<path fill="#FFFFFF" stroke="#FFFFFF" stroke-miterlimit="10" d="M254.493,71.042h-9.632v-4.261h-0.128
		c-2.213,3.324-5.487,4.987-9.826,4.987c-3.199,0-5.718-0.816-7.554-2.451c-1.836-1.634-2.753-3.813-2.753-6.538
		c0-5.761,3.789-9.085,11.371-9.975l8.956-1.072c0-3.249-1.955-4.872-5.864-4.872c-3.931,0-7.667,1.054-11.211,3.16v-6.9
		c1.418-0.657,3.357-1.237,5.815-1.739c2.459-0.503,4.696-0.754,6.718-0.754c9.405,0,14.107,4.223,14.107,12.67V71.042z
		 M244.928,58.98v-2l-5.992,0.695c-3.309,0.386-4.962,1.731-4.962,4.03c0,1.045,0.402,1.899,1.209,2.566
		c0.805,0.667,1.894,1,3.269,1c1.911,0,3.468-0.595,4.672-1.782C244.325,62.301,244.928,60.799,244.928,58.98z"/>
	<path fill="#FFFFFF" stroke="#FFFFFF" stroke-miterlimit="10" d="M272.855,67.593h-0.128v3.449h-10.18V27.086h10.18v18.731h0.128
		c2.512-3.459,6.088-5.189,10.727-5.189c4.253,0,7.529,1.314,9.826,3.942c2.299,2.629,3.446,6.226,3.446,10.787
		c0,4.949-1.342,8.921-4.027,11.917c-2.683,2.996-6.271,4.495-10.757,4.495C278.01,71.769,274.939,70.376,272.855,67.593z
		 M272.565,55.067v3.043c0,1.914,0.613,3.499,1.836,4.756c1.226,1.256,2.792,1.884,4.704,1.884c2.319,0,4.117-0.807,5.396-2.42
		c1.278-1.614,1.917-3.9,1.917-6.858c0-2.454-0.585-4.373-1.755-5.754c-1.17-1.382-2.841-2.074-5.011-2.074
		c-2.041,0-3.731,0.687-5.073,2.059C273.237,51.074,272.565,52.863,272.565,55.067z"/>
</g>
</svg>
