<?xml version="1.0" encoding="UTF-8" standalone="no"?>
<!-- Generator: Adobe Illustrator 16.0.0, SVG Export Plug-In . SVG Version: 6.00 Build 0)  -->

<svg
   xmlns:dc="http://purl.org/dc/elements/1.1/"
   xmlns:cc="http://creativecommons.org/ns#"
   xmlns:rdf="http://www.w3.org/1999/02/22-rdf-syntax-ns#"
   xmlns:svg="http://www.w3.org/2000/svg"
   xmlns="http://www.w3.org/2000/svg"
   xmlns:sodipodi="http://sodipodi.sourceforge.net/DTD/sodipodi-0.dtd"
   xmlns:inkscape="http://www.inkscape.org/namespaces/inkscape"
   version="1.1"
   id="Fondo"
   x="0px"
   y="0px"
   width="32"
   height="32"
   viewBox="0 0 32 32"
   enable-background="new 0 0 600 200"
   xml:space="preserve"
   inkscape:version="0.48.4 r9939"
   sodipodi:docname="favicon.svg"
   inkscape:export-filename="/home/jose/Projects/IC-7841 SiLabI/frontend/app/images/favicon.png"
   inkscape:export-xdpi="90"
   inkscape:export-ydpi="90"><metadata
     id="metadata33"><rdf:RDF><cc:Work
         rdf:about=""><dc:format>image/svg+xml</dc:format><dc:type
           rdf:resource="http://purl.org/dc/dcmitype/StillImage" /><dc:title></dc:title></cc:Work></rdf:RDF></metadata><defs
     id="defs31" /><sodipodi:namedview
     pagecolor="#ffffff"
     bordercolor="#666666"
     borderopacity="1"
     objecttolerance="10"
     gridtolerance="10"
     guidetolerance="10"
     inkscape:pageopacity="0"
     inkscape:pageshadow="2"
     inkscape:window-width="1366"
     inkscape:window-height="713"
     id="namedview29"
     showgrid="false"
     inkscape:zoom="10.295475"
     inkscape:cx="19.776898"
     inkscape:cy="8.5167353"
     inkscape:window-x="0"
     inkscape:window-y="30"
     inkscape:window-maximized="1"
     inkscape:current-layer="g9" /><g
     id="g9"
     style="fill:#ffffff"
     transform="matrix(0.20479476,0,0,0.20811458,-6.3732129,-3.6583994)"><polygon
       clip-rule="evenodd"
       points="84.054,147.314 96.245,122.926 122.249,122.926 134.437,147.314 "
       id="polygon11"
       style="fill:#002d56;fill-opacity:1;fill-rule:evenodd"
       transform="matrix(1,0,0,1.1722334,0,-25.977012)" /><path
       clip-rule="evenodd"
       d="m 47.97,36.798954 h 122.553 c 3.451,0 6.272,3.116 6.272,6.925 v 73.657006 c 0,3.807 -2.822,6.926 -6.272,6.926 H 47.97 c -3.447,0 -6.271,-3.119 -6.271,-6.926 V 43.723954 c -10e-4,-3.809 2.823,-6.925 6.271,-6.925 z"
       id="path13"
       style="fill:#002d56;fill-opacity:1;fill-rule:evenodd"
       inkscape:connector-curvature="0" /><rect
       x="51.488838"
       y="46.78513"
       clip-rule="evenodd"
       width="116.20391"
       height="65.153824"
       id="rect15"
       style="fill:#5bc0de;fill-opacity:1;fill-rule:evenodd" /><path
       clip-rule="evenodd"
       d="m 34.458,144.74605 h 149.577 c 1.836,0 3.338,1.66 3.338,3.688 l 0,0 c 0,2.027 -1.502,3.686 -3.338,3.686 H 34.458 c -1.837,0 -3.338,-1.658 -3.338,-3.686 l 0,0 c 10e-4,-2.027 1.502,-3.688 3.338,-3.688 z"
       id="path17"
       style="fill:#002d56;fill-opacity:1;fill-rule:evenodd"
       inkscape:connector-curvature="0" /></g><flowRoot
     xml:space="preserve"
     id="flowRoot3010"
     style="font-size:40px;font-style:normal;font-weight:normal;line-height:125%;letter-spacing:0px;word-spacing:0px;fill:#000000;fill-opacity:1;stroke:none;font-family:Sans"
     transform="translate(0,-168)"><flowRegion
       id="flowRegion3012"><rect
         id="rect3014"
         width="257.97742"
         height="115.77902"
         x="397.8447"
         y="46.923038" /></flowRegion><flowPara
       id="flowPara3016" /></flowRoot></svg>